<?xml version="1.0" encoding="utf-8"?>
<!-- Generator: Adobe Illustrator 21.0.2, SVG Export Plug-In . SVG Version: 6.00 Build 0)  -->
<svg version="1.1" id="Layer_1" xmlns="http://www.w3.org/2000/svg" xmlns:xlink="http://www.w3.org/1999/xlink" x="0px" y="0px"
	 viewBox="0 0 192.5 192.8" style="enable-background:new 0 0 192.5 192.8;" xml:space="preserve">
<style type="text/css">
	.st0{fill:#FFFFFF;}
</style>
<g>
	<path class="st0" d="M47.7,49.2C47.7,49.2,47.7,49.1,47.7,49.2c-1,0.3-2.1,0.7-3,1.1C45.8,50.7,46.8,50.3,47.7,49.2z"/>
	<path class="st0" d="M69.2,47.3c1.3-0.6,2.4-1.1,3.3-1.4c0.9-0.3,1.6-0.4,2.1-0.5l-0.4-0.3c0.3,0,1-0.3,2-0.7
		c0.3-0.1,0.6-0.2,0.9-0.4c-1,0-1.2-0.4-3.2,0.3l1.1,0.1c-2.5,0.8-3.6,1.2-6.4,1.8c-0.5-0.4,1.3-0.2,1.9-0.7l-1.3-0.2
		c-1.1,0.6-2.2,1.2-3.1,1.9c-1.1,0.8-2.2,1.6-3.3,2.4c-1,0.9-2,1.8-3,2.6c-0.5,0.4-1,0.9-1.5,1.3c-0.5,0.5-0.9,1-1.3,1.4
		c-0.9,1-1.8,1.9-2.6,2.9c-0.2,0.3-0.5,0.6-0.7,0.9c0.2,0,0.4,0,0.4,0.2c-0.2,0-0.3,0-0.5,0c-0.7,1-1.4,2-2.2,3.1
		c-0.8,1.5-1.7,3.1-2.5,4.6c0,0,0,0,0.1,0c2.3-3.4,2.3-4.1,5.1-7.5c0.6-0.6,1-1.2,1.5-1.6c0.5-0.4,1-0.8,1.4-1.1
		c0.9-0.7,1.7-1.3,2.9-2.2c-0.5,0.2-0.9,0.5-1.3,0.8c0.7-0.9,1.3-1.4,1.8-1.8c0.4-0.4,0.7-0.6,1-0.8c0.5-0.4,1-0.7,2.3-2l0.1,0.1
		l0.9-0.6c-1.3,0.2-1.2,0.7-1.9,0.4l2.2-0.6c0.3,0-0.2,0.6-1.1,0.9l0.1,0.3c0.9-1,3.6-2.6,4.8-3.1L69.2,47.3z M61.1,51.8
		c0.2-0.1,0.3-0.2,0.4-0.3C61.4,51.5,61.3,51.6,61.1,51.8z"/>
	<path class="st0" d="M123.3,29.2c1-0.1,1.7,0,2.5-0.1c0,0,0,0,0,0c0,0,0,0,0,0c0.4-0.1,0.8-0.2,1.3-0.4c0.5-0.3,0.4-0.3,0.3-0.6
		c0.3-0.2,0.5-0.3,0.8-0.5l2.3-6.5l1.9,0.7l0.2-0.6l-0.7,0.3l-0.2,0l0.9-0.4l0.3-0.8l-0.9-0.3c-0.3,0-0.5,0-0.6-0.1
		c0,0,0.1,0,0.1-0.1l-2.7-1c-0.4,0.1-0.8,0.2-1.1,0.2l0.7-0.4l-1.1-0.4l-0.6,1.6l2,0.7l-2.7,7.4c0.2,0.1,0.2,0.3,0.2,0.5l-0.4,0.1
		l-0.1,0.2l-0.2-0.1l0-0.1L123.3,29.2z"/>
	<path class="st0" d="M138.5,52.1c-1.7-0.8-2.6-2.4-1.2-0.4C139.4,53.6,137.8,51.7,138.5,52.1z"/>
	<path class="st0" d="M69.2,164.8l1,0.3c0.2-0.1,0.4-0.2,0.6-0.3c0,0,0,0,0,0l-1.5-0.1L69.2,164.8z"/>
	<path class="st0" d="M32.9,25.5l-1.2,1.1l-1.1,1.1c-3.1,2.9-5.9,6.2-8.7,9.8c-1,1.2-2,2.6-2.9,4c0.2,0,0.4-0.1,0.6-0.1
		c0.2,0,0.4-0.1,0.5-0.1c0.8-1.2,1.8-2.4,2.6-3.5c1.2-1.5,2.4-2.9,3.3-4.1c1-1.1,1.8-2,2.2-2.5c1.3-1.2-1.4,1.7-1.9,2.4
		c1.1-1.3,2-2.3,2.7-3.1c0.7-0.8,1.3-1.4,1.9-2.1c0.6-0.7,1.3-1.4,2.2-2.2c0.9-0.9,2.1-2,3.8-3.3l0.1,0c2.8-2.4,5.9-4.7,9.3-6.9
		C45.9,16,45.4,16,45,16c-0.8,0.6-1.7,1.1-2.5,1.7L40,19.5c-1.7,1.2-3.2,2.6-4.8,3.8C34.5,24.1,33.7,24.8,32.9,25.5z"/>
	<path class="st0" d="M41,100.1c-0.1,0-0.2,0-0.3,0c0,0.1,0,0.2,0,0.4c0,0.5,0.1,0.9,0.2,1.4c0.1,0,0.3-0.1,0.4-0.1
		C41.2,101.2,41.1,100.7,41,100.1z"/>
	<path class="st0" d="M50.1,125.2l-0.9,0.3c0,0,0,0,0,0c0.5,0.7,1,1.4,1.5,2.1c0.5,0.7,0.9,1.3,1.3,1.9c0.1,0.1,0.1,0.2,0.2,0.3
		c0.4-0.1,0.7-0.2,1.1-0.3C52.1,128.2,51,126.7,50.1,125.2z"/>
	<path class="st0" d="M41.3,86.8c-0.1,0-0.2,0-0.3,0.1C41,87.4,41.1,87.2,41.3,86.8z"/>
	<path class="st0" d="M127.2,45.7c-0.6-0.4-1.2-0.8-1.8-1.1c-0.5,0-2.1-0.6-4-1.5c-1-0.5-2.1-0.8-3.3-1.2c-0.6-0.2-1.1-0.4-1.7-0.6
		c-0.6-0.2-1.1-0.4-1.7-0.6c-1.3-0.4-2.7-0.8-4-1.2c-0.7-0.2-1.4-0.3-2.1-0.5l-2.1-0.4l-1.8-0.3c-1.8,0.9,1.9,0.5,0.5,1.3
		c0.1-0.2-0.8-0.5-2.3-0.3c-0.2,0-0.4,0.1-0.7,0.2c0.3-0.1,0.5-0.1,0.7-0.2c2.4-0.6-0.8-0.6,1.4-1c-0.7-0.1-1.4-0.1-2-0.2l-2.1-0.2
		c-0.7,0-1.4-0.1-2.1-0.1c-3.3-0.1-6.6,0.2-9.8,0.8c0.1,0.3,0.1,0.4-0.4,0.5l1.4,0l-1.9,0.7c0.9,0.2,2.2-0.5,3.2-0.8
		c1.2,0-2.5,1.1-3.5,2.1c-0.9,0.6-3,0.8-3.2,0.6c-0.1,0.3-0.8,0.6-1.6,0.9c0.1,0-0.1,0.2-0.6,0.5c0.4-0.2,0.7-0.4,1.2-0.6
		c0.5-0.2,1.1-0.3,2-0.5l0.4,0.3c0.6-0.2,1.3-0.3,1.9-0.5c0.6-0.2,1.2-0.3,1.8-0.4c1.1-0.1,2-0.2,2.4-0.1c-1.4,0.3-1.8,0.5-2.3,0.7
		c5.4-0.7,6-0.8,6.4-1.2c0.2-0.2,0.4-0.3,1.1-0.5c0.7-0.1,2-0.4,4.5-0.1l-0.1,0.2l2.5-0.1c0.9,0.1,1.7,0.5,2.5,0.7
		c0.9-0.1,2.2,0,3.8,0.3c1.5,0.4,3.3,0.9,5.1,1.4c1.7,0.7,3.6,1.5,5.3,2.2c1.3,0.7,2.6,1.3,3.7,1.8l2.9-1.1l-0.6,0.7L127.2,45.7z
		 M117.8,43.6l-1.2,0l1.5-0.2L117.8,43.6z"/>
	<path class="st0" d="M41.3,85.1c-0.2,0.9-0.2,1.4-0.3,1.8l0.3-0.3c0.1-0.2,0.1-0.3,0.2-0.5C41.4,85.9,41.6,83.8,41.3,85.1z"/>
	<path class="st0" d="M40.6,96.9c0,0.6,0,1.2,0,1.9c0,0.3,0,0.6,0,0.9c0,0.1,0,0.1,0,0.2c0.1,0,0.2,0,0.3-0.1
		C40.9,98.7,40.8,97.8,40.6,96.9C40.7,96.9,40.6,96.9,40.6,96.9z"/>
	<path class="st0" d="M48,123.4c0.3,0.7,0.6,1.4,1.1,2.1l1-0.3c-1-1.6-2-3.2-2.8-4.9l-0.9,0.5C46.9,121.7,47.5,122.6,48,123.4z"/>
	<path class="st0" d="M42.2,106.2l-0.7,0.3c0,0.2,0.1,0.4,0.1,0.6c0.2-0.1,0.5-0.2,0.7-0.3C42.3,106.6,42.2,106.4,42.2,106.2z"/>
	<path class="st0" d="M43.8,76.1c0.3-0.5,0.3-0.3,0.2,0.3c0,0,0,0,0,0c0,0.1,0.1,0.1,0.1,0.2c0-0.1,0-0.2,0.1-0.2
		c0.1-0.5,0.1-0.7,0-0.6c-0.1,0-0.3,0.2-0.4,0.3C43.7,76,43.7,76,43.8,76.1z"/>
	<path class="st0" d="M141.4,57.6c-0.2-0.2-0.3-0.3-0.5-0.5c0,0,0,0,0,0.1l-3,1c1-0.2,1.7,0,2.5-0.2c0,0,0,0,0,0c0,0,0,0,0,0
		C140.7,57.9,141.1,57.8,141.4,57.6z"/>
	<path class="st0" d="M146.8,14.5l0.3-0.3c0,0,0,0-0.1,0c-0.2,0.1-0.3,0.1-0.5,0.2C146.7,14.4,146.8,14.5,146.8,14.5z"/>
	<path class="st0" d="M143.9,12.8c0.1-0.1,0.3-0.2,0.4-0.3c0,0-0.1,0-0.1-0.1c-0.2,0-0.5,0.1-0.7,0.1
		C143.7,12.7,143.8,12.8,143.9,12.8z"/>
	<path class="st0" d="M43.8,77.1L43.8,77.1c0.1-0.1,0.2-0.2,0.2-0.3c0,0-0.1,0.1-0.1,0.1C43.8,77,43.8,77,43.8,77.1z"/>
	<path class="st0" d="M137.8,9.8C137.9,9.7,137.9,9.7,137.8,9.8C137.9,9.7,137.8,9.7,137.8,9.8C137.8,9.7,137.8,9.7,137.8,9.8z"/>
	<path class="st0" d="M129,50.3C129,50.3,129,50.3,129,50.3C129,50.3,129,50.3,129,50.3c0.4,0.3,0.7,0.5,1.1,0.9
		c0.7,0.6,1.5,1.3,2.4,2l0-0.5c0.3,0.3,0.8,0.7,1.3,1.2c0.5,0.5,1.1,1.1,1.7,1.8c0.5,0.6,1.1,1.2,1.7,1.8c0.3-0.1,0.6-0.2,0.9-0.3
		c-0.8-0.1,1.1-0.8,1.1-0.9c0.8-0.2,0.6,0.2,0,0.4c0.6-0.1,1-0.1,1.3,0c-0.2-0.2-0.5-0.5-0.8-0.7l-2.2-1.8c-1.8-1.8-0.8-1.6-1.1-1.6
		c-0.5-0.5-1.1-0.9-1.6-1.3c-0.5-0.4-1-0.8-1.5-1.2c-0.7-0.5-1.3-1-1.9-1.5c-0.9,0.1-1.7,0.3-2.2,0.1l1.3-0.7c0,0-0.1-0.1-0.1-0.1
		c-0.2-0.1-0.4-0.3-0.7-0.4c-0.1,0-0.1,0-0.2,0l-3,1.2c0.3,0.2,0.7,0.5,1,0.8C129.5,49.1,131,48.9,129,50.3z"/>
	<path class="st0" d="M105.8,12.9l-2.8-0.2l-5.9,12.5L95.5,25l-0.1,1.6l5.3,0.4l0.1-1.6L99,25.3l0.2-0.5l0,0l0.1,0l1.2-2.6l5.1,0.4
		l0.8,3.3l-2.1-0.2l-0.1,1.6l7.1,0.6l0.1-1.6l-1.9-0.2L105.8,12.9z M105.1,21.1l-4.1-0.3l2.5-5.5l0.1,0L105.1,21.1z"/>
	<path class="st0" d="M113.4,26.8l-0.6,1.6l3.7,1.3c0.8-0.2,1.6-0.3,2.4-0.5l0.1-0.4l-2-0.7l3.3-9.1l0.2,0.1l2.2,9.3
		c0.2-0.1,0.5-0.1,0.7-0.2c-0.8-0.1,1.1-0.8,1.1-0.9c0.8-0.2,0.6,0.2,0,0.4c0.4,0,0.7,0,0.9,0l-2.6-11.1l-1.6-0.6
		c-0.2,0-0.5,0-0.6,0l0.2-0.1l-3-1.1l-0.6,1.6l1.9,0.7l-3.8,10.5L113.4,26.8z"/>
	<path class="st0" d="M132.1,47.7L132.1,47.7c-0.1-0.2-0.2-0.3-0.3-0.4c-0.1,0-0.2,0-0.3,0C131.7,47.5,131.9,47.6,132.1,47.7z"/>
	<path class="st0" d="M141,25.5c-1.8,0.5-1.1,0.2-1.8,0.2l0.2,0.1L133,35l-1.8-1.3l-0.9,1.4l5.3,3.7c4.6,3.2,8.6,2,11-1.3
		c2.4-3.5,1.8-7.4-2.8-10.6l-2.5-1.8C141,25.2,140.9,25.3,141,25.5z M142.8,28.2c3,2.1,3.2,4.3,1,7.4c-2.4,3.5-4.5,3.9-7.3,1.9
		l-1.2-0.9l6.4-9.2L142.8,28.2z"/>
	<path class="st0" d="M75.9,15.5L69.7,17l0.4,1.6l2.2-0.5L75,28.9l-2.2,0.5l0.4,1.6l6.3-1.6c5.5-1.4,7.2-5.2,6.2-9.2
		C84.7,16.2,81.4,14.1,75.9,15.5z M79.3,27.9l-1.5,0.4l-2.7-10.9l1.3-0.3c3.5-0.9,5.3,0.3,6.3,4.1C83.7,25.2,82.7,27,79.3,27.9z"/>
	<path class="st0" d="M123.7,32.5l2.4,0.8l1.1-3c-1.1,0.3-2.5,0.7-3.7,0.9L123.7,32.5z"/>
	<path class="st0" d="M70.7,45c0-0.2,0.3-0.5,0.1-0.5c-0.4,0.2-0.7,0.4-1.1,0.6C70.2,44.9,70.7,44.7,70.7,45z"/>
	<path class="st0" d="M138.5,23.2l-0.9,1.4l0.4,0.3c0.6-0.2,1.2-0.4,1.9-0.7L138.5,23.2z"/>
	<path class="st0" d="M80.4,42.3c1-0.5,2.1-0.6,3.1-1.3c-1.9,1-0.3-1.1-2.8,0.3c-1-0.5,2.1-1,3.5-1.1c-0.7,0.3,0,0.4-0.1,0.6
		c2-0.8,0.9-1-0.6-0.8l1.7-0.8c-1.4,0.3-2.8,0.7-4.1,1.1c-1.3,0.5-2.7,0.9-4,1.4c-1.3,0.6-2.6,1.1-3.9,1.7c-0.2,0.1-0.4,0.2-0.5,0.2
		c0.5-0.1,1-0.1,1.6,0c0.1,0.1-0.7,0.4-1.2,0.6c1.3-0.1,2.3-0.5,3-0.8c-1.9,0.4-1-0.1-1.5-0.4c1.1-0.5,3.1-0.9,3.7-1.2
		C80,41.5,81.4,41.6,80.4,42.3z"/>
	<path class="st0" d="M139.3,24.9l-0.9,0.3l0.2,0.2C138.9,25.2,139.1,25.1,139.3,24.9z"/>
	<path class="st0" d="M184.2,55.7c-0.6-1.2-1.2-2.4-1.9-3.6l-2-3.5c0.9,1.7,2,3.4,2.8,5.1c1.3,3,1.2,2.8,0.6,1.6
		c-0.3-0.6-0.7-1.4-1.2-2.3c-0.5-0.8-0.9-1.6-1.2-2.2c1.3,2.3,1.9,3.8,2.3,4.6c0.4,0.8,0.5,1,0.5,0.9
		C184.3,56.1,183.8,54.9,184.2,55.7z"/>
	<path class="st0" d="M44.1,16.1c-1.4,1-2.7,1.9-3.9,2.8c1.2-0.9,2.6-1.9,4.1-2.8C44.2,16.1,44.1,16.1,44.1,16.1z"/>
	<path class="st0" d="M155.3,88.8l0.1,0.3c0,0,0.1-0.1,0.1-0.1c0-0.1,0-0.2,0-0.3L155.3,88.8z"/>
	<path class="st0" d="M3.4,105c0-0.1,0-0.2,0-0.4c-0.3,0-0.8,0-1.3,0.2c0.4-0.1,0.9-0.2,1.3-0.4c0-0.3-0.1-0.6-0.1-0.9
		c0-0.2,0-0.3,0-0.5c-0.3,0-0.5,0-0.8,0.1c0.2-0.1,0.5-0.2,0.8-0.3c-0.3-4.7-0.3-9.3,0-13.6l0-0.3c0-0.2,0-0.4,0.1-0.7
		c-0.3,0.3-0.8,0.7-1.3,1.1c0,0.7-0.1,1.6-0.1,2.5c-0.1,0.6,0-1.3,0-2.3c0,0,0,0-0.1,0.1c-0.2,2.8-0.2,5.1-0.3,7.2
		c0.3,5.5,0.1-0.4,0.4,3c0,0.2,0,0.5,0,0.7l0,0c0.2,0,0.2,0.2,0,0.5c0,1.4,0.1,2.2,0.1,2.6c0,0.1,0,0.2,0,0.2l0.4,0.2
		C2,104,1.5,104.2,1,104.4c0,0.5,0.1,1,0.1,1.5c0.1-0.1,0.2-0.1,0.3-0.2c-0.1,0.1-0.2,0.2-0.3,0.3c0,0.1,0,0.2,0,0.3
		c0.1,0,0.2,0,0.3,0c0.3-0.2,0.1-0.3-0.2-0.2c0.4-0.2,1.2-0.6,1.5-0.9C3,105.1,3.2,105.1,3.4,105z"/>
	<path class="st0" d="M47.8,34.4l-0.1-0.2c0,0.1-0.1,0.2-0.3,0.4C47.5,34.5,47.6,34.4,47.8,34.4z"/>
	<path class="st0" d="M154,87l-0.2,0.4c0.2,0.1,0.7,0,1.4-0.2c-0.1-0.4-0.1-0.8-0.2-1.2c-0.2-1.1-0.3-1.7,0-1.1
		c-0.3-1.1-0.7-2.3-1.1-3.7c-0.2-0.7-0.4-1.4-0.7-2.1c-0.2-0.7-0.5-1.5-0.8-2.2c-0.3-0.7-0.5-1.5-0.8-2.2c-0.3-0.7-0.6-1.5-1-2.2
		c-0.3-0.7-0.6-1.4-1-2.1c-0.3-0.7-0.7-1.3-1.1-1.9l0.5,0.2c-0.4-0.6-1-1.4-1.5-2.4c-0.3-0.5-0.6-1-0.9-1.6c-0.4-0.5-0.7-1-1.1-1.6
		c-0.2-0.3-0.4-0.5-0.5-0.8c-0.3,0-0.7,0.2-1.1,0.6c-1.8,0.5-1.4,0-2-0.1c1.8-0.5-1-0.4,1.3-1.1c-1.7,0.1-1.4,0.8-2.2,1.1
		c0.5,0.8,1,1.7,1.4,2.4c0.1,0.1,0.1,0.2,0.2,0.3l0.3-0.2l-0.1,0.2l-0.2,0.1c0.2,0.3,0.3,0.6,0.5,0.9l0.9-0.3l-0.6,0.4l-0.2,0
		c0.1,0.2,0.2,0.4,0.3,0.6c0.2,0.6,0.4,1.1,0.5,1.5c0.1,0,0.2,0,0.3,0c-0.1-0.2-0.1-0.3,0-0.3c0.1,0.1,0.1,0.2,0.2,0.3
		c0.1,0,0.3,0,0.4,0c-0.1,0-0.2,0.1-0.3,0.1c0.7,1.2,1.3,2.1,1.7,3c0.4,0.9,0.7,1.7,0.9,2.3c0.2,0.6,0.4,1.2,0.5,1.8
		c0.1,0.3,0.2,0.6,0.3,0.9c0.1,0.3,0.1,0.7,0.2,1.1c1.4,3.7-0.8-2.9,0.1-1c0.4,1.5,0.7,2.5,1,3.3c0.3,0.8,0.6,1.4,0.8,2.1
		c0.2,0.7,0.4,1.4,0.7,2.4c0.1,0.5,0.3,1.1,0.4,1.8c0.1,0.4,0.1,0.9,0.1,1.4c0.2-0.1,0.3-0.1,0.5-0.2C152.3,87.5,153.3,86.9,154,87z
		"/>
	<path class="st0" d="M36.8,53.8l3.1,2.4l-1.4,1.8l1.3,1l4.5-5.8l-1.3-1l-1.4,1.8l-2-1.5c-0.3,0-0.4-0.2-0.5-0.3c0,0,0.1,0,0.1,0
		l-1.3-1l1.4-1.8c1.2-1.5,1.9-1.3,3.2-0.4l1.1,0.8c0.2,0.2,0.4,0.3,0.6,0.4c1.7-0.6,3-1.2,4-1.6c0.2-0.7,0.2-1.3-0.1-2
		c-0.4,0-0.9,0.1-1.3,0.1c0.2,0.5,0.2,0.8,0.1,1c-0.2,0.3-0.6,0.3-1.2-0.1l-1-0.7c-1.2,0.1-2.6,0.3-4,0.5c1-0.3,2-0.7,3-1
		c-1-0.3-2.2-0.1-3.5,1.2l-0.1-0.1c1.5-2.7,0.9-4.4-0.4-5.3c-1.4-1.1-3.7-1.2-6.4,2.2l-4.6,5.9l1.3,1l1.4-1.8l4.6,3.5
		c0.4-0.1,0.7-0.2,1.1-0.2c-0.1,0-0.1,0-0.2,0.1c-0.4,0.1-0.7,0.2-0.9,0.2l0.2,0.2c0.8-0.2,1.4-0.3,1.3,0
		C37.2,53.3,37,53.5,36.8,53.8z M32.7,47.1l1.4-1.9c1.2-1.6,2.2-1.6,3.5-0.6c1.4,1.1,1.6,2.2,0.4,3.8l-1.3,1.7L32.7,47.1z"/>
	<path class="st0" d="M6.5,65.8C6.5,65.8,6.5,65.8,6.5,65.8c0.1-0.2,0.1-0.4,0.2-0.7c0.2-0.5,0.4-1.1,0.6-1.7c0,0,0,0,0,0
		C7,64,6.9,64.6,6.7,65C6.6,65.3,6.6,65.6,6.5,65.8z"/>
	<path class="st0" d="M7.5,62.9C7.5,62.9,7.5,62.9,7.5,62.9c0.2-0.4,0.3-0.8,0.4-1.1C7.8,62.1,7.6,62.5,7.5,62.9z"/>
	<path class="st0" d="M93.7,0.7C93.7,0.7,93.7,0.7,93.7,0.7C93.7,0.7,93.7,0.7,93.7,0.7c0.5-0.1,1.1-0.3,1.7-0.6
		c-1.3,0-2.5,0.1-3.8,0.2l-2.5,0.9C91,0.8,92.1,1.1,93.7,0.7z"/>
	<path class="st0" d="M155.3,94.2c0-0.2,0-0.4-0.1-0.6C155.2,93.8,155.2,94,155.3,94.2C155.3,94.2,155.3,94.2,155.3,94.2z"/>
	<path class="st0" d="M155.4,92.4c0,0.9-0.1,1.9-0.2,1.8C155.4,95.2,155.5,95.4,155.4,92.4z"/>
	<path class="st0" d="M155.1,89.9c0-0.1,0-0.2,0-0.3c0,0-0.1,0-0.2,0c-1.2,1.2-2-0.1-3.3,1.2c0,0,0,0-0.1,0c0,0.1,0,0.2,0,0.3
		c0.2,0.9,0.1,1.8,0.2,2.8c0,1,0.1,2,0.1,3c0.1,0,0.3,0,0.4-0.1c-0.2,0.1-0.3,0.1-0.4,0.2c0,1-0.1,2-0.2,3.1l-0.1,1.6l-0.1,0.8
		l-0.1,0.8c-0.2,1-0.4,2.1-0.5,3.1c-0.1,0.5-0.2,1-0.3,1.5c-0.1,0.5-0.3,1-0.4,1.5c-0.3,1.1-0.7,2.2-1.1,3.4c-0.4,1.2-1,2.4-1.5,3.6
		c-0.3,0.6-0.5,1.3-0.8,1.9c-0.3,0.6-0.7,1.2-1,1.8c-0.3,0.5-0.5,1-0.8,1.5l1.7-0.5l-0.3,0.3l1.8-0.9c0.1,0.5,0.7,0.1,0.6,0.5
		c0.3,0.1,0.8,0.1,1.2,0c0.1-0.1,0.1-0.2,0.2-0.4c0.5-0.9,0.7-1.8,1.1-2.7c0.3-0.9,0.6-1.7,0.9-2.6c-0.4,0.9-1,2.1-1,1.8
		c1.2-3.5,1.3-3,1.7-3.7c0.6-2.7,0.1-2.5,0.3-4.1c1.5-5.4,1.4-6.2,2.2-10.9l-0.4,0.3c0.3-1.7,0.2-2.6,0.1-3.6c-0.1-1-0.2-2-0.2-3.8
		c0.1-0.2,0.3,1.2,0.4,2.3c-0.1-0.8-0.1-1.4,0-1.9c0-0.5,0-0.8,0-1.2c0-0.2,0-0.3,0-0.5C155,90,155.1,89.9,155.1,89.9z"/>
	<path class="st0" d="M134.5,107.4l-2.2-1.5c-1.3,1.1-3.2,6.1-9.5,7.8c-14,3.8-22.3-7.2-24.5-13.5c2-1.1,4.1-2.2,6.4-3.5l-0.7-0.1
		c0.5,0,0.9-0.1,1.3-0.2c7.1-4.1,15.3-9.4,22.9-16.1c-0.4-0.7-0.8-1.4-1.2-2.1c-1.4,0.5-2.9,0.9-2.7,1.4c-2.2,0.6-0.7,0-2.4,0.2
		c-0.3-0.2,0.2-0.5,0.8-0.8l-5.3,1.7c0.1,0.2,0.2,0.3,0.3,0.5c1-0.1,2-0.2,0.8,0.5c-0.1,0.1-0.2,0.2-0.3,0.4
		c0.3,0.4,0.5,0.9,0.7,1.4c-6.6,4.3-14.8,8.9-21.9,12.2c-0.4-1.4-0.7-3-0.9-4.6c-0.3,0.1-0.6,0.2-0.8,0.3c-1.6,0-0.2-0.6,0.8-1
		c0,0,0-0.1,0-0.1l-1.9,0.6c1-0.6-0.2-0.7,1.2-1.4c-1.5,0.6-1.8,0.2-3.2,0.9c1.5-1.2-2.2,0-2.6-0.4c1.6-0.6,4.8-0.7,4.8-0.6
		c0.1-0.1,0.8-0.3,1.5-0.4c0-0.2,0-0.3,0-0.5c-0.3,0.1-0.5,0-0.4-0.3l-1.8,0.8c1.2-1,1.5-1.3,2.1-1.7c0-0.2,0-0.3,0-0.5
		c-3.2,0.5-5.4,2.4-8.2,2.5l0.4-0.2c-5.8,1.8-7.5,1.2-9,0.4c0.9-0.3,1.7-0.6,2.5-0.9l0.3,0.4c4.1-0.9,6.7-2.9,10.9-3.8
		c-0.5,0.6-2.1,0.8-1.8,0.9c2.5-0.6,1.9-1.7,4.5-1.7c-3.5,1.1,2.3-0.4-0.8,0.9c0.4-0.2,0.9-0.4,1.4-0.5c0.4-5,2.5-9.6,7.6-10.9
		c3.9-1,6.9-0.2,9.3,1.6c1.5-0.8,3.3-1.5,5.8-1.9c-2.1,0.8-3.7,1.6-5.1,2.4c1.1,0.9,2.1,2.1,3,3.3l0.9-0.3l-0.3,0.3l1.8-0.9
		c0.1,0.5,0.7,0.1,0.6,0.5c1.4,0.6,4.1-1.4,6.8-1.8c-3.3-5.1-9.2-10.8-20.7-7.7c-1.2,0.3-2.3,0.7-3.5,1.2c-0.2,0.1-0.3,0.2-0.4,0.3
		c-0.3,0.2-0.9,0.4-1.4,0.5c-5.4,2.9-9.8,8-11.8,14.7c-1-0.4-2-0.8-3.2-1c-12.4-2.2-13-4.4-13.5-6.3c0,0,0-0.1,0-0.1
		c-0.3,0.1-0.7,0.1-0.9,0.2l0.5-0.2c0.1,0,0.3-0.1,0.4-0.1c-0.2-0.8-0.2-1.4,0-2c-0.4,0-0.7,0-1.1,0.1c0.4-0.1,0.8-0.2,1.2-0.3
		c0.1-0.5,0.4-0.8,0.6-1.2c-0.5,0.1-1,0.1-1.6,0.3c-0.4,0.1-0.8,0.2-1.3,0.4c0.5-0.2,0.9-0.3,1.3-0.4c4.7-1.5-2.7-1,3.9-2.4
		c-1.5,0.7-1.7,1.1-1.4,1.3c0.7-0.5,1.4-0.7,1.5-0.7c1.6-0.4,3.1-0.2,4.4,0.5c0.6-0.2,1.1-0.6,1.6-0.4c0,0-0.4,0.4-0.9,0.8
		c2.6,1.6,4.5,4.6,5,6l3.8-1c-0.4-1.4-0.7-2.7-1.2-4.1c-1.2,0.4-2.3,0.7-4.1,1.1c-0.5-0.4,1.3-0.3,1.9-0.7l-1.5-0.1
		c0.6-0.2,1.7-1,1.8-0.5c-0.1-0.3,0.8-0.9-0.9-0.2l1.2-0.8c-0.1,0-0.2-0.1-0.3-0.1c0.4-0.1,0.8-0.3,1.2-0.4c0.1,0,0.2,0,0.3,0
		c-0.5-1.3-1-2.7-1.7-3.9l-0.3,0.1c0.1-0.1,0.2-0.1,0.2-0.2c0-0.1-0.1-0.2-0.1-0.3c-1-0.2-2.2-0.3-3.6-0.3c-0.1,0-0.1,0.1-0.2,0.1
		c0,0,0.1-0.1,0.1-0.1c-2,0-4.6,0.2-7.7,1C63.2,73.2,59.2,79,61,85.8c1.2,4.3,4,6.4,7.3,7.6l0.9-0.4c-0.1,0-0.2,0-0.2,0
		c0.8-0.3,1.6-0.5,2.3-0.8c0.5,0.5,0.6,0.8-0.1,0.9l1.4,0l-1.9,0.7c0.9,0.2,2.2-0.5,3.2-0.8c0.9,0-0.8,0.6-2.2,1.3
		c1.7,0.4,3.4,0.7,5,1.1c0.4,0.1,0.8,0.2,1.2,0.3c1-0.4,2-0.7,2.6-1.1l-2.1,1.2c0,0,0.1,0,0.1,0l0.3,0c0,0-0.1,0.1-0.1,0.1
		c3.6,1.2,5.3,3,5.6,4.4c0.6,2.2,0.5,4.5-3.5,5.6c-3.7,1-9.4-1.9-12.2-8.9L64,98.3c1.1,4.1,2.8,8.1,4.1,11l0.5-0.5l0.5-0.4l-0.3,0.4
		l-0.6,0.7c0.1,0.2,0.2,0.4,0.3,0.6c0.6-0.1,1.3-0.2,1.8-0.4c0.1-0.1,0.2-0.2,0.6-0.4c-0.1,0.2-0.4,0.3-0.6,0.4
		c-0.4,0.4,2.4,0.1,2.9-0.1c-0.1,0.4-1,0.7-2.1,1c3.2,0.3,6.2,0.2,9.7-0.7c1-0.3,2-0.7,3.5-1.3c0.4-0.2,0.8-0.4,1.4-0.6
		c-0.5,0.2-0.9,0.4-1.4,0.6c-0.4,0.2-0.6,0.4-0.9,0.6c2.4-0.8,4.6-1.7,6.4-3c0.8,2,1.8,3.8,2.9,5.4c0.1,0,0.2-0.1,0.3-0.1
		c-0.1,0-0.2,0.1-0.3,0.1c5.9,8.3,16,11.3,26.1,8.5C129.3,117.1,133.3,109.5,134.5,107.4z M124.7,114.5l-0.7,0.7l-0.4,0.2
		L124.7,114.5z M116.8,85.7l-0.7,0.7l-0.4,0.2L116.8,85.7z M105.8,94.1l1,0.4c-1.8,0.4-0.6,0.6-2.5,1.2
		C103.8,95.4,106.5,94.6,105.8,94.1z M115.5,75.6l-0.2,0l1.3-0.6l0.2,0L115.5,75.6z M111.9,70.3l-2.2,1.3l0.6-0.1
		c-0.6,0.5-2,1.1-3.4,1.3C106.5,72.3,110.5,71.1,111.9,70.3z M83.3,75.3c-0.2,0.3,0.3,0.5-1.4,0.8c0.1-0.2,0-0.2-0.3-0.2
		C82.2,75.7,82.7,75.5,83.3,75.3z M74.1,70.7l-1.6,0.6l-0.2,0L74.1,70.7z M65.4,89.9l-0.3,0l2.4-1.3l0.3,0L65.4,89.9z M69.3,90.2
		c-0.8,0-1.5,0.1-2.1,0.3c0.5-0.4,0.7-0.7,1.7-1l0.8-0.2C69,89.4,69,89.8,69.3,90.2z M68.8,79.9c0,0.6-2.2,1.3-2.7,2
		c-0.5,0.3-3.1,1.1-2.6,0.5c1.9-0.3,1.3-1.7,3.2-1.4c0.2-0.4-0.3-0.5-1-0.4c0.2-0.1,0.3-0.3,0.3-0.4c0.7-0.2,1.3-0.3,1.9-0.5
		C68.4,79.8,68.9,79.7,68.8,79.9z M71.7,87.5c0.2-0.4-0.5-0.4-0.9-0.4C72.7,86.3,72.2,87.1,71.7,87.5z M76.3,84.1
		c-0.4,0.1,1.3-0.6,1.3-0.2C77.3,83.8,76.7,84,76.3,84.1z M76.3,108.8c0,0.1,0,0.3-0.6,0.4c-0.5,0.3-0.7,0.4-0.2,0l-0.6,0.1
		c-0.3-0.2,0.3-0.3,1.2-0.6c0.1-0.1,0.3-0.2,0.4-0.3C76.5,108.6,76.4,108.7,76.3,108.8z M81.9,107.4c-0.2,0.1-0.3,0.1-0.6,0.2
		C81.6,107.5,81.7,107.4,81.9,107.4c0.6-0.2,0.8-0.4,1.7-0.4C83.2,107.2,82.6,107.2,81.9,107.4z M83.9,108.3
		c0.2-0.1,0.5-0.2,0.6-0.3C84.2,108.1,84,108.2,83.9,108.3z M88.7,93.7c0.1-0.2-0.8-0.5-2.3-0.3c-0.2,0-0.4,0.1-0.7,0.2
		c0.3-0.1,0.5-0.1,0.7-0.2c2.6-0.6-1.5-0.6,2.2-1.2C85.9,93.3,90.2,92.8,88.7,93.7z M92.9,98.2l-1.2,0l1.5-0.2L92.9,98.2z
		 M97.5,97.2c-0.1,0-0.2-0.1-0.3-0.1C97.4,97.1,97.5,97.2,97.5,97.2c0.5,0.2,1,0.4-1.2,1.2C93.4,98.7,97.9,97.7,97.5,97.2z
		 M99.3,106.6c-1.6,0,0.9-0.4,0.7-0.6c-0.1,0-0.1,0-0.1-0.1c0.1,0,0.1,0,0.1,0.1C100.2,106.1,100.5,106.2,99.3,106.6z"/>
	<path class="st0" d="M9.2,59c-0.5,1.2-1.1,2.5-1.6,3.9c0.1,0,0.3,0,0.4,0.1c-0.2,0.1-0.4,0.2-0.6,0.3c-0.3,0.8-0.6,1.6-0.8,2.4
		c0.4-0.1,0.8-0.3,1.2-0.4c0-0.1,0-0.1,0-0.2C8.3,64,8.7,63,9.1,61.9c0.4-1,0.8-2.1,1.3-3.1c0.5-1.1,0.9-2.2,1.5-3.4l1.5-2.7
		c1.4-2.6,1.7-3.2,1.8-3.6c0.2-0.4,0.2-0.7,1.3-2.5c0.4-0.6,0.8-1.2,1.2-1.9c0.5-0.7,1-1.4,1.5-2.2c0,0,0-0.1,0.1-0.1
		c-0.6,0.3-1.3,0.7-1.6,1c0,0,0,0,0,0c-1.2,1.8-2.1,3.3-2.4,3.6c1.5-2.6,0.3-0.7,1.5-2.8c-1.7,2.8-1.7,3-1.9,3.5
		c-0.2,0.5-0.6,1.3-2.8,5.4c0.1-0.4,0.1-0.8,0.2-1.2C11.8,53.5,10.5,56,9.2,59z"/>
	<path class="st0" d="M18.4,42.4c0,0-0.1,0.1-0.1,0.1c0,0,0,0,0,0C18.4,42.4,18.4,42.4,18.4,42.4z"/>
	<path class="st0" d="M7.1,62.9c1.4-3.9,3-7.8,4.9-11.5C10.1,55.1,8.5,58.9,7.1,62.9C7.1,62.9,7.1,62.9,7.1,62.9z"/>
	<path class="st0" d="M24.7,70.1l0.5-1.2c-2.7-2.3-3.1-2.9-2.4-4.6l0.3-0.7l10.5,4.6l-0.2,0.5c0.7-0.1,1.3-0.3,2-0.4l1.9-4.3
		l-1.5-0.7l-1,2.2L24.3,61l0.3-0.7c0.6-1.3,1.2-1.7,3-1.6c-0.1-0.1-0.1-0.2,0-0.3c0.9-0.2,1.5-0.6,1.9-0.9l-4.4-1.9l-5.4,12.4
		L24.7,70.1z"/>
	<path class="st0" d="M143.8,60.3C143.8,60.3,143.7,60.2,143.8,60.3c-0.4-0.5-0.8-0.9-1.1-1.2c-0.9,0.3-2.2,0.7-3.4,1
		c0,0.1,0.1,0.1,0.1,0.2c0.2,0.3,0.4,0.6,0.6,0.9c0.4-0.1,0.8-0.2,1.3-0.4l-0.6,0.4C141.1,61.4,142.4,60.8,143.8,60.3z"/>
	<path class="st0" d="M46.6,69.1c-0.2,0-0.4,0.1-0.6,0.1l-0.3,1.7L46.6,69.1z"/>
	<path class="st0" d="M40.9,102.3c0.1,0.6,0.1,1.2,0.2,1.9c0,0.3,0.1,0.6,0.1,1l0.2,0.9l0.7,0c-0.1-0.4-0.2-0.7-0.3-1.1
		c-0.2-1-0.3-2-0.5-2.9c-0.2,0-0.3,0.1-0.4,0.1C40.9,102.2,40.9,102.2,40.9,102.3z"/>
	<path class="st0" d="M19.1,115.4c-0.1,0-0.2,0.1-0.3,0.1c0,0,0,0.1,0,0.1C18.9,115.5,19,115.5,19.1,115.4z"/>
	<path class="st0" d="M27,112.9c0.4-0.2,0.8-0.4,1.2-0.6c-1.1-2-3.4-3.1-5.7-2.5c-1.9,0.5-3.3,2.1-3.6,3.9c0.4-0.2,0.9-0.3,1.3-0.5
		l0.1-0.2c0,0,0,0.1-0.1,0.2c1.2-0.4,2.3-0.8,2.9-1.1C26,111.5,28.7,111.5,27,112.9z"/>
	<path class="st0" d="M43,78.2L43,78.2l-0.1,0.3c0,0,0,0,0.1,0C42.9,78.4,42.9,78.3,43,78.2z"/>
	<path class="st0" d="M43.3,77.1C43.3,77.1,43.3,77.1,43.3,77.1C43.2,77.1,43.2,77.1,43.3,77.1L43.3,77.1z"/>
	<path class="st0" d="M54.2,130.8c-0.3,0.2-0.7,0.5-1,0.7c0.5,0.6,1,1.3,1.5,1.9l1.1-0.6C55.3,132.1,54.7,131.4,54.2,130.8z"/>
	<path class="st0" d="M42.5,80.4l0,0.1C42.5,80.5,42.5,80.5,42.5,80.4C42.5,80.4,42.5,80.4,42.5,80.4z"/>
	<polygon class="st0" points="61.8,34.1 61.8,34.1 61.6,34.1 	"/>
	<path class="st0" d="M2.1,85.1c0,0.2,0,0.8-0.1,1.9c0,0.3,0,0.6,0,1c0.5-0.2,0.9-0.4,1.3-0.4c0.4-4.1,1-8.3,2-12.7
		c-0.1,0.1-0.3,0.2-0.4,0.2c0.2-0.4,0.3-0.9-1-0.4c-0.1,0.4-0.2,0.7-0.3,1l0.3-0.1c-0.1,0-0.2,0.1-0.3,0.1c-0.3,1.3-0.6,2.4-0.8,3.4
		c0,0.3,0.6-2.2-0.3,3.9C2.1,85.9,2.2,84.5,2.1,85.1z"/>
	<path class="st0" d="M156.1,96.7l-0.3-4.6l0,0.7C156,93.9,156,95.5,156.1,96.7z"/>
	<path class="st0" d="M43.4,78.4c0-0.2,0.1-0.4,0.1-0.5l-0.1,0C43.5,78.1,43.4,78.3,43.4,78.4C43.4,78.4,43.4,78.4,43.4,78.4z"/>
	<path class="st0" d="M99.7,0.9c1-0.3,2-0.6,2.2-0.4l-0.5,0.3c11.4,0.4,23.6,3.2,34.3,7.9c0.1,0,0.1,0,0.2-0.1l-0.1,0.1
		c0.2,0.1,0.4,0.2,0.6,0.2c0.2-0.1,0.4-0.2,0.7-0.2c-5-2.3-10-4-14.2-5c-1.2-0.3-2.6-0.8-4-1.1c-1.4-0.3-2.9-0.6-4.3-0.9
		c-1.4-0.2-2.7-0.4-3.8-0.6c-1.1-0.2-1.9-0.3-2.4-0.4c-1.5-0.2-2.9-0.3-4.3-0.4c-0.3,0-0.7,0.1-1.2,0.2c-0.1-0.1-0.2-0.2-0.2-0.3
		c-0.8,0-1.6-0.1-2.3-0.1l-1.9,0.7C98.9,0.9,99.3,0.9,99.7,0.9z"/>
	<path class="st0" d="M101.2,0.9L101.2,0.9c0.2,0,0.4,0,0.7,0.1C101.6,0.9,101.4,0.9,101.2,0.9z"/>
	<path class="st0" d="M58.7,38.9l11.7-6.5l-0.5-0.9c0,0-0.1,0-0.1,0c-0.2,0-0.4,0.1-0.7,0.2c0.3-0.1,0.5-0.1,0.7-0.2c0,0,0,0,0.1,0
		l-2.1-3.8l-1.2,0.7c0.9,3,1,3.7-0.8,4.8l-3.4,1.9l-0.4-0.8c-0.6,0.4-1.7,0.8-2.7,1l0.7,1.2l-2,1.1L58.7,38.9z"/>
	<path class="st0" d="M150.4,16.8c0.1-0.1,0.2-0.2,0.3-0.2c-0.8-0.5-1.5-1.1-2.3-1.6c-0.1,0.1-0.2,0.2-0.3,0.3
		C148.8,15.8,149.6,16.3,150.4,16.8z"/>
	<path class="st0" d="M14.9,143.3c0.2,0,0.4-0.1,0.5-0.1c-0.9-1.5-1.7-3.1-2.6-4.8c-0.3-0.5-0.5-1.1-0.8-1.6l-0.9,2.4
		c0.1,0.2,0.2,0.4,0.3,0.8c1.4,2.5,1.9,3.2,2.5,4l0.4-0.3C14.5,143.5,14.7,143.4,14.9,143.3z"/>
	<path class="st0" d="M94.7,151.6l0.9,0.1l0.7,0l1.9-1c-0.2,0-0.3,0.1-0.4,0.1c0.6-0.2,1.1-0.5,1.7-0.7c-0.2,0-0.3,0-0.5,0
		c-0.8-0.1,0.4-0.2,1.2-0.3c0,0,0.1,0,0.1-0.1c-3.6,0.2-3.5,0.8-8.3,0.4l-0.1-0.1c-0.9,0-1.9-0.1-2.8-0.2c0.1,0.1-0.2,0.4-0.5,0.6
		c0.2-0.4-0.5-0.5-0.9-0.4c0.4-0.2,0.7-0.2,1-0.3c-3.8-0.5-7.9-1.4-11.9-3c-0.3,0.2-0.7,0.5-1.3,0.6l1-0.7c-0.1,0-0.1,0-0.2-0.1
		c-0.9,0.2-0.9,0.6-1.5,0.3l1.3-0.4c-1.1-0.4-2.2-0.9-3.3-1.4c-0.7-0.4-1.5-0.7-2.2-1.1c-0.7,0.2-1.4,0.3-1.9,0.4
		c0.1,0,0.1,0.1,0.2,0.1c0.5,0.2,1,0.5,1.6,0.8c1.1,0.5,2.2,1.1,3.4,1.7c1.4,0.7,0.6,0.6,1,0.9l-1-0.4l-1-0.5l-2-0.9l-2-1
		c-0.7-0.3-1.2-0.7-1.9-1.1c1.4,1.1,3,1.9,4.6,2.7c-0.5-0.2-1.2-0.6-2-0.9c-0.4-0.2-0.8-0.4-1.2-0.6c-0.4-0.2-0.8-0.5-1.2-0.7
		c-1.5-0.9-2.9-1.7-3.2-1.8c3.3,2,7.6,4.6,12.2,6.2c1.1,0.4,2.2,0.9,3.4,1.2c1.1,0.3,2.3,0.6,3.3,0.9c0.5,0.1,1.1,0.3,1.6,0.4
		c0.5,0.1,1,0.1,1.5,0.2c1,0.1,1.9,0.2,2.7,0.3c-0.8-0.2-1.6-0.3-2.4-0.5c-0.8-0.2-1.7-0.3-2.6-0.5c-0.9-0.2-1.8-0.5-2.7-0.7
		c-0.9-0.3-1.8-0.5-2.7-0.8c-1.5-0.7-3.8-1.7-3.5-1.8c1.2,0.4,2.5,0.8,3.7,1.2l0.9,0.3l0.9,0.2c0.6,0.2,1.2,0.3,1.8,0.4
		c0.6,0.2,1.2,0.3,1.8,0.5l0.9,0.2l0.9,0.1c1.2,0.2,2.4,0.4,3.6,0.6l0.9,0.2c0.3,0,0.6,0,0.9,0.1c0.6,0,1.2,0.1,1.8,0.1
		C93.5,151.5,94.1,151.5,94.7,151.6z M73.7,147.8c0.2-0.1,0.3-0.2,0.4-0.3C74,147.5,73.9,147.6,73.7,147.8z"/>
	<path class="st0" d="M77,1.6l-2.1,0.5c0.9-0.2,1.6-0.3,2.3-0.5c0.7-0.1,1.4-0.3,2.1-0.4c0.7-0.1,1.5-0.3,2.4-0.5
		c0.9-0.1,1.9-0.3,3.1-0.4l-1.5,0c-1.4,0.2-2.8,0.5-4.2,0.8L77,1.6z"/>
	<path class="st0" d="M165.6,73.3c-0.1,0-0.1,0-0.2,0.1c-0.1,0.2-0.2,0.5-0.3,0.7C165.6,73.9,165.9,73.6,165.6,73.3z"/>
	<path class="st0" d="M73.6,160.4c-0.1,0.1-0.3,0.1-0.4,0.1c0.2,0,0.4,0,0.7-0.1L73.6,160.4z"/>
	<path class="st0" d="M156.6,142.4c0.3,0.2,0.6,0.5,0.9,0.8c3.2,2.8,3.3,4.9,1,7.5l-1,1.1l-8.3-7.5l0.9-1c1.9-2.1,3.6-2.6,5.7-1.5
		l0.4-0.2l0.7,0.2l0.9-0.8c-1.2,0.1-3.8,0.3-4.5,0c1.3-0.3,3-0.8,4.9-1.4c-2.3-1.3-4.9-1.2-7.5,0.7c0.1,0,0.1,0,0.2,0l-0.1,0.1
		c-0.2,0.1-0.4,0.2-0.5,0.2c-0.2,0.2-0.5,0.4-0.7,0.6c0,0.1,0.2,0.1,0.4,0.1c-0.2,0.1-0.6,0.2-0.9,0.4c-0.1,0.1-0.2,0.2-0.4,0.4
		l-4.3,4.7l1.2,1.1l1.5-1.7l8.3,7.5l-1.5,1.7l1.2,1.1l4.4-4.8c3.6-4,3.1-8,0.4-10.7c-1.1,0.6-2.5,1.2-2.5,1.2
		C157.2,142.4,156.9,142.4,156.6,142.4z M149,146c-1.6,0,0.9-0.3,0.7-0.6c-0.1,0-0.1-0.1-0.1-0.1c0.1,0,0.1,0.1,0.1,0.1
		C150,145.5,150.3,145.6,149,146z"/>
	<path class="st0" d="M82.2,168.7l1.6-5.2l-6-1.8c-0.3,0.1-0.5,0.2-0.8,0.4l2.1,0.1c-1.5,0.6-2.7,1.1-3.9,1.6l-2.9,9.7l-2.3-0.7
		l-0.5,1.6l7.4,2.2l0.5-1.6l-2.3-0.7l3.3-10.9l0.8,0.2c1.8,0.5,2,1.2,1.9,4.8L82.2,168.7z"/>
	<path class="st0" d="M16,144.2c-0.5,0.2-0.9,0.4-0.9,0.6l0.4-0.5c-0.3,0.2-0.7,0.3-0.9,0.4c0.1,0.2,0.2,0.3,0.4,0.5l1.5-0.5
		C16.2,144.6,16.1,144.4,16,144.2z"/>
	<path class="st0" d="M9,134.8c-0.3-0.6-0.4-1.1-0.3-0.9c0.2,0.5,0.4,0.9,0.6,1.4c0.6-0.2,1.1-0.4,1.7-0.6c-0.1-0.3-0.2-0.5-0.3-0.8
		c-0.2-0.5-0.4-1.1-0.6-1.6c-0.7-1.5-1.2-3.2-1.8-4.8c-0.6,0.1-1.1,0.2-1.6,0.3l0.5-0.2c0.3-0.1,0.7-0.2,1-0.3
		c-0.2-0.6-0.4-1.2-0.6-1.8c-0.4,0-0.7,0-1.1,0c0.3-0.1,0.7-0.2,1-0.2c-0.4-1.2-0.8-2.5-1.1-3.8c-0.3,0.1-0.5,0.1-0.8,0.2
		c-0.4-0.3,0-0.5,0.7-0.6c-0.2-0.9-0.5-1.8-0.7-2.7c-0.9-3.4-1.5-7-1.9-10.5c-0.5,0.1-1.2,0.2-2.2,0.5c0.5,3.5,1.2,7.2,2.1,10.7
		c0,0.1,0.1,0.3,0.1,0.4c0.4-0.2,0.8-0.3,1.2-0.5c-0.2,0.5,0.2,0.7-1,1.2c1.2,4.5,2.7,8.8,4.4,12.7c0.5-0.1,1-0.1,1.4,0
		c-0.4,0.2-0.7,0.5-1.1,0.7c0.3,0.6,0.5,1.2,0.8,1.7c0,0,0,0,0,0C9.2,135.1,9.1,134.9,9,134.8z"/>
	<path class="st0" d="M47.4,67.1c0.1,0,0.2,0,0.3,0c0.4-0.7,0.2-0.7-0.1-0.2C47.5,66.9,47.4,67,47.4,67.1z"/>
	<path class="st0" d="M148.9,123.2c0.3-0.5,0.5-1.1,0.8-1.6l-4.1,1.3c-0.1,0.6,4.3-0.6,2.3,0.7c-0.5,0.3-0.2,1.1-2.5,1.5
		c0-0.1,0.1-0.2,0.3-0.3c-1,0.4-1.2,0.2-2.3,0.4c-0.5-0.4,1.2-0.7,1.9-1.3c-0.7,0.3-1.4,0.7-2.2,0.9l0.1-0.2l-0.1,0
		c-0.1,0.2-0.2,0.4-0.4,0.5c0.1,0,0.1,0,0.1,0l-0.2,0.1c-0.5,0.7-0.9,1.4-1.4,2c-0.9,1.1-1.8,2.2-2.8,3.3c-0.9,1.1-2,2.1-2.9,3
		c-0.5,0.5-1,1-1.5,1.4c-0.5,0.5-1,0.8-1.5,1.3l-0.1,0.2c-0.9,0.6-1.8,1.3-2.6,2c-0.9,0.6-1.9,1.3-2.8,2c-0.5,0.3-1,0.7-1.5,1
		c-0.5,0.3-1,0.6-1.6,0.9c-1.1,0.6-2.2,1.2-3.3,1.7c0.8-0.3,1.5-0.7,2.3-1c-0.7,0.5-1.3,0.8-1.9,1.2c-0.6,0.3-1.2,0.6-1.8,0.8
		c-0.6,0.3-1.2,0.5-1.8,0.8c-0.6,0.3-1.2,0.6-2,0.8l-1.8,0.1c-1.6,0.6-1.9,0.8-2.1,1c-0.2,0.2-0.3,0.3-1.5,0.7
		c-1.6,0.2-3.9,0.8-6.1,1c-0.4,0.1-0.8,0.1-1.3,0.2c0.2,0.4,0.1,0.7-0.7,0.8l2.5-0.1c1.7-0.7,3.4-1.3,5.6-1.7
		c-0.5,0.6-2.1,0.7-1.9,0.9c2.6-0.5,1.9-1.6,4.6-1.6c-3.5,1,2.3-0.3-0.8,0.9c2.8-1.1,5.8-1.6,8.4-2c0.4-0.1,0.8-0.3,1.1-0.5
		c0.9-0.4,1.8-1,2.6-1.5c0.7-0.2,0.5,0-0.2,0.5c-0.4,0.2-0.8,0.5-1.4,0.9c-0.2,0.1-0.5,0.3-0.8,0.4c0.1,0,0.1,0,0.2,0
		c0.2-0.1,0.4-0.2,0.5-0.3c0.5-0.3,0.9-0.5,1.2-0.8c0.7-0.5,1.3-0.9,2.5-1.6l-2,1.8c1.1-1,2.4-1.5,3.4-2.1c1-0.6,2-0.9,2.7-1.3
		c0.1-0.2-1.4,0.3,1.6-1.8c1.3-1,0.7-0.3,1.1-0.5c0-0.1,0.1-0.3,0.4-0.5l-0.3,0.1l-0.2,0l0.6-0.2c0.4-0.5,1.2-1.3,2.3-2.2
		c0.5-0.1-1,1.3-1,1.5c1.5-1.1,2.4-2.3,3.5-3.1c2.2-2.4-0.3,0,0.9-1.6c0.9-0.8,1.3-1.4,1.6-1.5c0.3-0.2,0.3-0.1,0.3,0.1
		c0,0.3-0.3,1,0.5,0.4c-0.3,0.4-0.6,0.8-0.9,1.2c-0.3,0.4-0.7,0.8-1,1.2c-0.7,0.8-1.4,1.5-2.1,2.3c-0.6,0.8-1.4,1.4-2,1.9
		c-0.6,0.5-1.1,1-1.5,1.4l2.8-2.4l2.5-2.7c-0.1,0.2,0.9-0.6,1.5-1.1c0.3-0.3,0.5-0.5,0.5-0.4c0,0.1-0.2,0.4-0.8,1.2
		c0.7-0.6,1.3-1.4,1.9-2.1c0.6-0.8,1.2-1.5,1.9-2.3c0.7-0.8,1.2-1.6,1.7-2.5c0.5-0.9,1.1-1.7,1.6-2.6
		C148.1,125.1,148.5,124.1,148.9,123.2z M145.3,128.3l-0.4,0.2l1.1-0.9L145.3,128.3z"/>
	<path class="st0" d="M70.8,161.4c0-0.2,0.7-0.8-0.5-0.4l-0.1,0.3C70.6,161.2,70.8,161.2,70.8,161.4z"/>
	<path class="st0" d="M60.1,138.5c0.8,0.6,1.6,1.2,2.4,1.8c1.5,1.2,3.3,2.1,5.1,3.3c0.4,0.2,0.7,0.4,1.1,0.7l0.3-0.1
		c0.5-0.1,1-0.3,1.4-0.4c-3.1-1.7-6.1-3.7-8.8-5.9l-1,0.4l-0.3,0l1.2-0.5c-0.7-0.6-1.4-1.1-2-1.7c-0.5,0.2-1,0.4-1.6,0.6
		c0.3,0.3,0.7,0.6,1,0.9C59.3,137.8,59.7,138.2,60.1,138.5z"/>
	<path class="st0" d="M63.3,142.6c-0.4-0.3-0.9-0.7-1.5-1.2l0.5,0.8c0.7,0.5,1.4,0.9,2.2,1.4l2.2,1.3c-0.8-0.7-1.5-1.1-2.2-1.6
		C64.2,143.2,63.8,142.9,63.3,142.6z"/>
	<path class="st0" d="M69.7,163.2l1.6-1.1c-0.4,0.1-0.8,0.2-1.3,0.3L69.7,163.2z"/>
	<path class="st0" d="M71.3,163.6c-0.1-0.5,1.3-1.7-1.6-0.4l-0.2,0.7C70.3,163.4,71.1,163,71.3,163.6z"/>
	<path class="st0" d="M70.5,162l-0.4-0.1l-0.1,0.3C70.2,162.1,70.4,162.1,70.5,162z"/>
	<path class="st0" d="M63.4,141.3l-2.2-1.5l1.7,1.3l0.8,0.7c0.3,0.2,0.6,0.4,0.9,0.6C64.2,142.1,63.7,141.7,63.4,141.3z"/>
	<path class="st0" d="M3.5,106.3c-0.2,0-0.3,0-0.5,0.1c0.1-0.1,0.3-0.1,0.5-0.2c0-0.1,0-0.1,0-0.2c-0.6,0.2-1.3,0.4-1.8,0.5
		c-0.2,0-0.3,0-0.4-0.1c0,0.2,0,0.3,0.1,0.5c0.1,0,0.3-0.1,0.4-0.1c-0.1,0-0.3,0.1-0.4,0.2c0,0.4,0.1,0.8,0.2,1.3
		c0.8-0.3,1.5-0.6,2.2-0.8C3.5,107,3.5,106.7,3.5,106.3z"/>
	<path class="st0" d="M98.9,173.9l-1.4-0.1c-0.9,3-1.2,3.7-3.2,3.6l-3.9-0.3l0.2-3.8c-0.1,0-0.1,0-0.2,0c-0.2,0-0.1,0,0.2-0.1
		l0.1-1.1l1.4,0.1c1.4,0.1,1.7,0.3,1.8,2.3l1.4,0.1l0.4-5.8l-1.4-0.1c-0.5,1.9-0.7,2.1-2.1,2l-1.4-0.1l0.3-4.7l4,0.3
		c1.8,0.1,2,0.7,2.5,3.4l1.4,0.1l0.3-4.9L86.1,164l-0.1,1.6l2.2,0.1l-0.7,11.2l-2.2-0.1l-0.1,1.6l13.4,0.9L98.9,173.9z"/>
	<path class="st0" d="M171.1,80.4l0.6-0.4l0.4,0.1c0.6-0.3,1.1-0.7,1.5-1.2c-2,0.4-4.9,1-6.4,0.9C168.4,80.5,169.8,80.7,171.1,80.4z
		"/>
	<path class="st0" d="M72.3,186.6c-5.6-1.4,0.6,0.2,0.4,0.3c-0.7-0.2-1.3-0.3-1.9-0.5c-0.6-0.2-1.2-0.4-1.7-0.5
		c-1.1-0.3-2-0.6-2.8-0.9c-1.6-0.6-2.9-1.1-4-1.5c-1.1-0.5-2-0.9-2.9-1.4c-1-0.4-2-1-3.3-1.6c-6.2-2.9,4.7,2.4,1.3,0.9
		c-1.2-0.6-2.2-1.1-3.1-1.5c-0.9-0.4-1.6-0.9-2.3-1.2c-1.3-0.7-2.4-1.2-3.4-1.9c-1.1-0.6-2.2-1.2-3.7-2.3c-0.8-0.5-1.6-1.1-2.6-1.8
		c-1-0.7-2.1-1.6-3.4-2.6c-1-0.9,2.7,2,3.9,2.7c-1.9-1.3-4.1-2.9-6.4-4.8c-0.5,0.1-0.8,0.2-1,0.2c0.3-0.1,0.7-0.1,1-0.2
		c-2.4-2-4.9-4.2-7.3-6.8l-0.5,0l0.3-0.2c-3.9-4-7.5-8.6-10.5-13.3c-0.1,0.1-0.3,0.2-0.4,0.2c-0.4-0.1-0.2-0.3,0.2-0.5
		c0-0.1-0.1-0.1-0.1-0.2c-0.1,0-0.2,0.1-0.4,0.2l-0.2,0.1c-0.2,0.2-0.5,0.4-0.7,0.6c1.5,2.4,2.7,4,3.8,5.6c0.7,1,1.5,1.9,2.3,3
		c0.4,0.5,0.9,1.1,1.4,1.8c0.5,0.6,1.1,1.3,1.7,2l-0.2-0.5c1.8,2.1,3,3.2,4.2,4.4c0.6,0.6,1.2,1.1,2,1.8c0.8,0.7,1.6,1.5,2.7,2.5
		c0.2,0.3-1.5-1.2-2.9-2.4c1,0.9,1.7,1.5,2.3,2.1c0.6,0.5,1,0.9,1.5,1.3c0.9,0.8,1.8,1.6,3.9,3.1l-1.7-1.1l-1.7-1.2
		c1,0.9,2.3,1.8,3.4,2.7c0.6-0.1,1-0.1,0.9,0.1c0,0.1,0,0.3-0.1,0.5c0.3,0.2,0.6,0.5,0.9,0.7c1.5,1,2.3,1.6,1.3,1.1
		c3,2,7.3,4.5,12,6.9c1.2,0.5,2.3,1.2,3.6,1.7c1.2,0.5,2.4,1,3.6,1.5c1.2,0.4,2.4,0.9,3.6,1.3c1.1,0.4,2.3,0.7,3.4,1.1l-0.6,0
		c1.1,0.3,2.7,0.8,4.6,1.2c0.9,0.2,1.9,0.5,2.9,0.7c1,0.2,2,0.4,3,0.6c1.1-0.4,2.2-0.9,3.3-1.3C77.4,188.2,74,187.3,72.3,186.6z"/>
	<path class="st0" d="M30.8,165.5c0.2,0.2,0.5,0.4,0.8,0.7C31.3,165.9,31.1,165.7,30.8,165.5C30.8,165.4,30.8,165.5,30.8,165.5z"/>
	<path class="st0" d="M30,164.8c0.2,0.3,1,1,2.9,2.7c-1.1-1-2.3-2.2-2.1-2.1C30.2,164.9,29.8,164.6,30,164.8z"/>
	<path class="st0" d="M156.7,171c-0.9,0.3-2.1,0.8-3.6,1.3c-0.1,0.1-0.2,0.2-0.3,0.2c-2.3,2-7.2,5.3-13,8.1
		c-5.8,2.9-12.3,5.2-17.2,6.6c-2.5,0.7-5.5,1.4-9.4,2c1,0.2,2,0.3,0.8,1.1c0.2-0.4-1.5-1-4.3-0.4c-0.4,0.1-0.8,0.2-1.3,0.3
		c0.5-0.1,0.9-0.3,1.3-0.3c0.5-0.1,0.8-0.3,1.1-0.4c-1.5,0.2-3.1,0.4-4.8,0.6l0.5,0.2c-3.1,0.3-10.3,0.6-17.5-0.2
		c-2.4-0.2-4.8-0.6-7-1c0.7,0.8,0.9,1.3-0.3,1.4l2.5,0l-1.5,0.6c0.4,0.1,0.8,0.1,1.2,0.2c0.9-0.4,1.8-0.8,2.6-1c1,0,0.1,0.5-1.3,1.2
		c1.4,0.1,2.5,0.2,3.3,0.3l0.7,0.1c1.6,0,3.1,0.2,4.6,0.2c1.5,0,3.1,0,4.6-0.1c4.2-0.1,2.8,0.2,3.1,0.1c1.2,0,2.3-0.2,3.4-0.2
		c1.1-0.1,2.2-0.2,3.2-0.3c2-0.3,4-0.5,5.8-0.9c1.8-0.3,3.5-0.6,5.2-1.1c1.6-0.4,3.1-0.7,4.6-1.1c1.4-0.6,10.7-3.5,17.5-7.2
		c5.6-2.9,11-6.4,16-10.4L156.7,171z"/>
	<path class="st0" d="M114.6,191c0.7-0.2,1.2-0.3,2.1-0.5c-2.6,0.5-4,0.8-5.4,1C113,191.4,113.9,191.1,114.6,191z"/>
	<path class="st0" d="M192.1,109.2c0.1-1.1,0.2-2.2,0.4-3.4l0.2-1.7l0.1-1.7c0.3-4.4,0.2-8.9-0.1-13.1c-0.3-5.1-1.6-12.2-3.4-18.3
		c0.5,1.9,0.8,3.4,1.1,4.6c0.3,1.3,0.5,2.3,0.7,3.4c0.1,0.5,0.2,1,0.3,1.6c0.1,0.6,0.2,1.1,0.3,1.8c0.2,1.3,0.4,2.7,0.6,4.7
		c0.3,2.9,0.2,4.9,0.2,6.8c0,0.9-0.1,1.9-0.1,2.8c-0.1,1-0.1,2.1-0.2,3.3c0.1-0.8,0.2-1.7,0.3-2.5c-0.2,7.8-0.3,5.4-0.8,11.5
		l-0.3-0.3c-0.1,1.1-0.4,3-0.7,4.9c-0.4,1.9-0.9,3.7-1.2,4.8l-0.3,2c-0.6,2.4-1.4,4.3-1.9,5.8c-0.6,1.5-1.1,2.6-1.4,3.2l0.4-0.4
		c-0.2,0.4-0.7,1.8-1.4,3.4c-0.4,0.8-0.7,1.7-1.1,2.6c-0.4,0.9-0.9,1.8-1.3,2.6c-0.8,1.7-1.7,3.1-2.1,3.8c-0.4,0.7-0.5,0.6,0.2-0.7
		c-0.3,0.6-0.6,1.3-1,2c-0.4,0.8-1,1.7-1.8,3.1l-0.4,0.3c-2.3,3.8-5.3,7.8-6.3,8.8c1.5-1.9,1.9-2.7,2.3-3.3
		c-0.7,0.9-1.3,1.8-1.9,2.5c-0.6,0.7-1.1,1.4-1.6,1.9c-0.9,1.1-1.5,1.9-2,2.5c-1,1.2-1.2,1.5-1.4,1.9c-0.2,0.3-0.3,0.6-1.2,1.6
		c0,0-0.1,0.1-0.2,0.2l1-0.4l-0.6,0.6l2-1.1c5.4-5.8,10.1-12.3,13.8-19.2c1.2-2.1,2.2-4.2,3.2-6.3c0.9-2.2,1.9-4.3,2.7-6.5
		c0.9-2.2,1.5-4.4,2.2-6.6c0.6-2.2,1.2-4.5,1.6-6.7C191.5,113.6,191.8,111.4,192.1,109.2z"/>
	<path class="st0" d="M101.6,192.6c-4.6,0.2-0.6,0.2-1.9,0.3C102.6,192.5,105.5,192.6,101.6,192.6z"/>
	<path class="st0" d="M169.7,70.5C169.6,70.5,169.6,70.5,169.7,70.5l-0.2,0c-0.3,0-0.6,0.1-0.9,0.1c-1.5,0.4-2.6,1.4-3.2,2.7
		c1.1-0.3,2.3-0.4,2.8-0.3c-1.4,0.4-2.1,1.1-3.2,1.6c-0.1,0.7-0.1,1.5,0.1,2.2c0.3,1.2,1,2.1,1.9,2.7c2.2-0.8,4.9-1.9,8-3.4
		c0.1-0.6,0.1-1.3-0.1-2C174.1,71.9,172,70.4,169.7,70.5z M167.7,78c0.4-0.2,1.2-0.8,1.4-0.5C168.6,77.8,168.1,77.9,167.7,78z"/>
	<path class="st0" d="M106,167.4c-0.2-1.2,0.5-2.2,1.9-2.4c1.7-0.3,3.1,0.4,4.6,2.9l1.6-0.2l-0.8-5l-1.6,0.3l-0.2,1.5
		c-0.9-0.9-2.5-1.2-3.8-1c-2.8,0.4-4.4,2.7-4.1,5.1c0.1,0.4,0.2,0.8,0.3,1.1c0.5-0.2,1.1-0.4,1.8-0.6c0.3-0.1,0.6-0.3,1.1-0.4
		C106.4,168.4,106.1,168,106,167.4z"/>
	<path class="st0" d="M188.7,66.8c-0.3-0.9-0.8-1.8-1.2-2.8c0.6,1.6,1.1,3.2,1.5,4.8c0.1,0,0.1,0,0.2-0.1
		C189.1,68.1,188.9,67.4,188.7,66.8z"/>
	<path class="st0" d="M189.8,71.1c0-0.2-0.1-0.4-0.2-0.7c0,0-0.1,0-0.1,0c0,0.2,0.1,0.3,0.1,0.5C190.1,72.3,190.1,72.1,189.8,71.1z"
		/>
	<path class="st0" d="M159.8,168.5l-2.8,1c-0.2,0.1-0.3,0.3-0.5,0.4c-0.2,0.1-0.3,0.2-0.5,0.4c0.8-0.2,2-0.6,2.7-0.7
		c0.3-0.3,0.6-0.5,0.9-0.8L159.8,168.5z"/>
	<path class="st0" d="M115.6,172.9c-0.5-3-3-3.3-5.4-3.5c-1.4-0.1-2.7-0.2-3.4-0.8c-0.4,0.1-0.7,0.3-1.1,0.4
		c-0.8,0.4-1.2,0.7-1.6,1.1c1,1.6,3,1.9,4.9,2.1c2.1,0.2,3.9,0.4,4.1,1.9c0.2,1.3-0.6,2.3-2.2,2.6c-2.2,0.3-3.4-0.5-5.1-3l-1.6,0.2
		l0.8,5.2l1.7-0.3l0.3-1.6c1,0.9,2.6,1.3,4.3,1c0.1,0,0.2-0.1,0.4-0.1c0.7-0.3,1.5-0.7,2.3-1C115.2,176.2,115.9,174.6,115.6,172.9z"
		/>
	<path class="st0" d="M159.4,140.6C159.4,140.6,159.4,140.6,159.4,140.6c-0.2,0-0.3,0-0.4,0L159.4,140.6z"/>
	<path class="st0" d="M147.5,156.3l-1.2,0.8c1.1,2.9,1.3,3.6-0.4,4.8l-3.2,2.2l-2.8-4.1l1.1-0.8c1.2-0.8,1.5-0.8,2.9,0.7l1.2-0.8
		l-3.3-4.8l-1.2,0.8c0.8,1.8,0.8,2.1-0.4,2.9l-1.1,0.8l-2.7-3.9l3.3-2.3c1.5-1,2-0.6,4.1,1.2l1.2-0.8l-2.8-4.1l-10.9,7.5l0.9,1.4
		l1.9-1.3l6.3,9.2l-1.9,1.3l0.9,1.4l11.1-7.6L147.5,156.3z"/>
	<path class="st0" d="M70.8,159.6l-0.4,1.2l0.8-0.4c-0.1,0-0.2-0.1-0.3-0.1c0.4-0.1,0.8-0.2,1.2-0.4L70.8,159.6z"/>
	<path class="st0" d="M67.5,4.7c-0.8,0.3-1.1,0.5-1,0.5c2.9-1,5.9-1.9,9-2.6C72.8,3.2,70.1,3.9,67.5,4.7z"/>
	<path class="st0" d="M63.4,6.6c-0.3,0.1-0.5,0.2-0.7,0.3c-1.2,0.6-2.6,0.9-2.3,1.1C61.8,7.5,62.7,7.1,63.4,6.6z"/>
	<path class="st0" d="M67.8,5.1c0.9-0.1,1.6-0.2,0.3,0.5c0.1,0,0.1,0,0.2-0.1c3-1.4,6.2-2.4,9.2-3.2C74.5,3,71.3,3.9,67.8,5.1z"/>
	<path class="st0" d="M63.7,6.1c-0.1,0.1-0.1,0.2-0.2,0.3c0.2-0.1,0.3-0.1,0.5-0.2c0.2-0.2,0.4-0.3,0.6-0.5c-0.7,0.2-1.3,0.5-2,0.8
		C63,6.3,63.3,6.2,63.7,6.1z"/>
	<path class="st0" d="M131,170.4l-2.3,0.9l-4.1-10.7l0.7-0.3c1.7-0.7,2.3-0.2,4.5,2.6l1.3-0.5l-2-5.1l-12.7,4.9l2,5.1l1.3-0.5
		c-0.3-3.5-0.2-4.2,1.6-4.9l0.7-0.3l4.1,10.7l-2.3,0.9l0,0.1c0.5-0.1,1.2-0.2,2.1-0.3c-1,0.4-1.6,0.6-1.9,0.7l0.1,0.2
		c1-0.1,3.7-0.7,0.8,0.7l0,0c1.8-0.9,3.7-1.6,5.7-2.2l1-0.4L131,170.4z"/>
	<path class="st0" d="M52.4,27.6l0.4-0.1l1.6-0.9l1.6,2.9l0.8-0.2l-0.7,0.5l0.9,1.7c0.1,0,0.2-0.1,0.3-0.1c0.4,0,0.3,0.1-0.1,0.3
		l1.8,3.3c0.5-0.3,1.5-0.7,2.6-1.1l-1.7-3.1l1.2-0.7c1.3-0.7,1.6-0.6,2.8,0.9l1.2-0.7l-2.8-5.1l-1.2,0.7c0.6,1.8,0.6,2.1-0.7,2.8
		l-1.2,0.7l-2.3-4.1l3.5-1.9c1.5-0.9,2.1-0.5,4,1.5l1.2-0.7L64,21.4c-0.3,0.1-0.7,0.1-1.2,0.2c0.4-0.1,0.8-0.2,1.1-0.3l-0.8-1.4
		l-11.6,6.4L52.4,27.6z M61.1,22c-0.3,0-0.9,0.1-1.3,0.2C59.3,22.3,61.1,21.6,61.1,22z M55.1,25.6c0.2-0.4-0.5-0.4-0.9-0.4
		C56.2,24.5,55.6,25.3,55.1,25.6z"/>
	<path class="st0" d="M29.9,165.1c-0.8-0.8-1.6-1.6-2.3-2.3l2.7,2.7l2.8,2.5l-0.8-0.8C31.6,166.7,30.8,165.9,29.9,165.1z"/>
	<path class="st0" d="M151.3,16.9c-0.1,0.1-0.1,0.2-0.2,0.3c0.5,0.3,0.9,0.6,1.4,0.9c1.4,1,2.7,1.9,4,2.9c0.1,0,0.2-0.1,0.3-0.1
		c-0.1-0.1-0.2-0.2-0.3-0.3C154.7,19.4,153,18.2,151.3,16.9z"/>
	<path class="st0" d="M43.4,113.8c0.2,0.6,0.4,1.2,0.6,1.9c0.3,0.6,0.5,1.2,0.8,1.7c0.5,1.1,1,2.2,1.5,3.3c0.3-0.1,0.7-0.3,0.9-0.4
		c-0.9-1.7-1.6-3.4-2.3-5.2c-0.6-1.7-1.2-3.4-1.8-5.1c-0.2-0.8-0.4-1.7-0.6-2.5c-0.2,0.1-0.5,0.3-0.7,0.4c0.1,0.7,0.3,1.4,0.4,2.1
		C42.5,111.3,43,112.5,43.4,113.8z"/>
	<path class="st0" d="M28.6,113.9c-1.6,0.6-3.2,1.2-4.1,1.8c-3.4,1.2-4.3,0.8-5.5,0.8c0.9,2.4,3.5,3.7,6,3.1
		C27.5,118.9,29,116.4,28.6,113.9z"/>
	<path class="st0" d="M176.2,41.8c-0.7-1.1-1.2-1.8-1.6-2.2c-0.3-0.4-0.5-0.6-0.5-0.6c0,0,0.5,0.8,1.1,1.7
		C175.4,40.9,177.4,43.7,176.2,41.8z"/>
	<path class="st0" d="M55.3,134.1c0.2,0.2,0.5,0.5,0.7,0.7c1.2-0.7,1.2-1.1,0.6-1.3c0,0,0,0.1,0.1,0.2c-0.1-0.1-0.1-0.1-0.2-0.2
		c-0.4-0.1-1,0-1.6,0.1c0.1,0.1,0.2,0.2,0.3,0.3C55.2,133.9,55.3,134,55.3,134.1C55.4,134,55.4,134,55.3,134.1
		C55.4,134,55.4,134,55.3,134.1z"/>
	<path class="st0" d="M34.2,71.1l0.1-0.2c-0.1,0-0.3,0.1-0.4,0.1L34.2,71.1z"/>
	<path class="st0" d="M45.5,36.1l5.9,6.9l-1,0.9c1.4-0.4,2.7-0.9,4.1-1.3l0.7-0.6L55,41.9c0.2,0,0.3-0.1,0.5-0.2l0.9-0.8l-1.1-1.3
		l-1.7,1.5l-5.2-6c-0.9,0.3-1.9,0.6-2.5,0.9C45.8,36.1,45.7,36.1,45.5,36.1z"/>
	<path class="st0" d="M162.9,26.5c0.6,0.5,1.1,1,1.6,1.5c0,0,0,0,0,0C164,27.5,163.5,27,162.9,26.5C163,26.5,162.9,26.5,162.9,26.5z
		"/>
	<path class="st0" d="M162.5,26c-1.2-1.1-2.6-2.3-4-3.5c-0.1,0-0.1,0.1-0.2,0.1C159.7,23.7,161.1,24.9,162.5,26
		C162.4,26,162.4,26,162.5,26z"/>
	<path class="st0" d="M144.2,69c1.4,2,0.5,0.7,0.2-0.1C144.4,68.9,144.3,68.9,144.2,69z"/>
	<path class="st0" d="M68.4,4.3c0,0,0.1,0,0.1,0c-0.1,0-0.2,0.1-0.3,0.1c0.6-0.2,1.4-0.4,2.1-0.6c0.7-0.2,1.4-0.4,2.2-0.6
		C73.3,3,74,2.8,74.7,2.6c2.9-0.8,5.5-1.2,6-1.4C77.1,1.9,72.8,2.9,68.4,4.3z"/>
	<path class="st0" d="M0.7,100.7L0.7,100.7c0-0.3,0-0.6,0-1C0.7,100,0.7,100.4,0.7,100.7z"/>
	<path class="st0" d="M42.4,35.9c0.1-0.1,0.3-0.1,0.4-0.2l0.1-0.1c-0.2,0-0.4,0.1-0.6,0.1L42.4,35.9z"/>
	<path class="st0" d="M155.1,89l-1.1,0.7c0.5-0.1,0.8-0.2,1.1-0.4C155.1,89.2,155.1,89.1,155.1,89z"/>
	<path class="st0" d="M126.6,77.4C126.5,77.4,126.5,77.4,126.6,77.4l-0.3,0.1C126.4,77.5,126.5,77.5,126.6,77.4z"/>
	<path class="st0" d="M151.2,88.1C151.2,88.1,151.2,88.1,151.2,88.1c-0.1-0.6-0.2-1.4-0.3-1.7C151,86.9,151.1,87.5,151.2,88.1z"/>
	<path class="st0" d="M6.1,66c0.2-0.7,0.5-1.5,0.7-2.2c0,0,0,0-0.1,0C6.5,64.5,6.3,65.2,6.1,66C6,66,6,66,6.1,66z"/>
	<path class="st0" d="M80.3,1.5c0.7-0.1,1.3-0.2,2-0.3c0.2-0.1,0.4-0.1,0.6-0.2l-0.9,0.1L80.3,1.5z"/>
	<path class="st0" d="M29.6,58.9l0.3-0.6c-0.7,0.2-1.3,0.4-1.8,0.5C28.6,58.8,29.1,58.9,29.6,58.9z"/>
	<path class="st0" d="M8.1,65.2c0-0.1,0.1-0.3,0.1-0.4L8.1,65.2C8.1,65.2,8.1,65.2,8.1,65.2z"/>
	<path class="st0" d="M41.4,34.8l0.3,0.4c1.1-0.5,2.9-0.8,3.5-1.1c1-0.1,1.9-0.2,2.3,0l-1.1-1.3l1.7-1.5L47,30L41.4,34.8z"/>
	<path class="st0" d="M32.7,70.4l0.9,0.4c0.3-0.1,0.6-0.2,0.9-0.3l0.5-1.2c-0.5,0-1.1,0-1.8-0.1L32.7,70.4z"/>
	<path class="st0" d="M1.2,87.1c0.1-0.6,0.1-1.1,0.1-1.5L1.2,87.1l-0.1,1.3c0,0,0,0,0,0C1.2,88,1.2,87.5,1.2,87.1z"/>
	<path class="st0" d="M0.9,101.6c0,0.3,0,0.5,0,0.5C0.9,102,0.9,101.9,0.9,101.6c-0.1,0.1-0.1,0.1-0.1,0.1c0,0.8,0.1,1.6,0.2,2.4
		c0.1-0.2,0.1-0.3,0.7-0.6l0.1,0c-0.1-0.5-0.3-1.4-0.3,0.1c-0.1-0.7-0.2-1.5-0.2-2.3C1.1,101.4,1,101.5,0.9,101.6z"/>
	<path class="st0" d="M0.9,100.9C0.9,100.9,0.9,100.9,0.9,100.9c0,0.1,0,0.2,0,0.2l0.3-0.2c0,0,0,0,0-0.1
		C1.1,100.8,1,100.8,0.9,100.9z"/>
	<path class="st0" d="M0.8,100.9C0.8,100.9,0.8,100.9,0.8,100.9c0,0.1,0,0.2,0,0.3l0,0C0.8,101.1,0.8,101,0.8,100.9z"/>
	<path class="st0" d="M0.9,94.8c0,1,0,2,0,3.1c-0.1-0.3-0.1,1.4,0,2.7l0.3-0.1c0-0.6-0.1-1.3-0.1-1.9C0.9,96.9,1,95.2,1,93.5
		c0-1.3,0-2.5,0.1-3.6c0,0,0,0,0,0l-0.1,1.8L0.9,94.8z"/>
</g>
</svg>
