<?xml version="1.0" encoding="utf-8"?>
<!-- Generator: Adobe Illustrator 21.0.2, SVG Export Plug-In . SVG Version: 6.00 Build 0)  -->
<svg version="1.1" id="Layer_1" xmlns="http://www.w3.org/2000/svg" xmlns:xlink="http://www.w3.org/1999/xlink" x="0px" y="0px"
	 viewBox="0 0 40.1 40.1" style="enable-background:new 0 0 40.1 40.1;" xml:space="preserve">
<style type="text/css">
	.st0{fill:#FFFFFF;}
</style>
<title>close-icon</title>
<g>
	<path class="st0" d="M8.1,35c0,0,3.3,0,5.5,0c0.5,0,1,0.2,1.4,0.6c0.4,0.4,0.6,0.9,0.6,1.4c0,0,0,0,0,0c0,0.5-0.2,1-0.6,1.4
		c-0.4,0.4-0.9,0.6-1.4,0.6c-2.9,0-8.3,0-10.3,0c-0.5,0-1-0.2-1.3-0.5l0,0c-0.4-0.4-0.5-0.8-0.5-1.3c0-2,0-7.4,0-10.3
		c0-0.5,0.2-1,0.6-1.4c0.4-0.4,0.9-0.6,1.4-0.6c0,0,0,0,0,0c0.5,0,1,0.2,1.4,0.6c0.4,0.4,0.6,0.9,0.6,1.4c0,2.2,0,5.5,0,5.5
		s4.7-4.7,7.1-7.1c0.8-0.8,2-0.8,2.8,0c0,0,0,0,0,0c0.8,0.8,0.8,2,0,2.8C12.8,30.3,8.1,35,8.1,35L8.1,35z"/>
	<path class="st0" d="M8.1,4.6c0,0,3.3,0,5.5,0c0.5,0,1-0.2,1.4-0.6c0.4-0.4,0.6-0.9,0.6-1.4c0,0,0,0,0,0c0-0.5-0.2-1-0.6-1.4
		c-0.4-0.4-0.9-0.6-1.4-0.6c-2.9,0-8.3,0-10.3,0c-0.5,0-1,0.2-1.3,0.5c0,0,0,0,0,0C1.7,1.6,1.5,2.1,1.5,2.6c0,2,0,7.4,0,10.3
		c0,0.5,0.2,1,0.6,1.4c0.4,0.4,0.9,0.6,1.4,0.6c0,0,0,0,0,0c0.5,0,1-0.2,1.4-0.6c0.4-0.4,0.6-0.9,0.6-1.4c0-2.2,0-5.5,0-5.5
		s4.7,4.7,7.1,7.1c0.8,0.8,2,0.8,2.8,0c0,0,0,0,0,0c0.8-0.8,0.8-2,0-2.8C12.8,9.3,8.1,4.6,8.1,4.6L8.1,4.6z"/>
	<path class="st0" d="M33.4,35c0,0-3.3,0-5.5,0c-0.5,0-1,0.2-1.4,0.6c-0.4,0.4-0.6,0.9-0.6,1.4c0,0,0,0,0,0c0,0.5,0.2,1,0.6,1.4
		c0.4,0.4,0.9,0.6,1.4,0.6c2.9,0,8.3,0,10.3,0c0.5,0,1-0.2,1.3-0.5l0,0c0.4-0.4,0.5-0.8,0.5-1.3c0-2,0-7.4,0-10.3
		c0-0.5-0.2-1-0.6-1.4c-0.4-0.4-0.9-0.6-1.4-0.6c0,0,0,0,0,0c-0.5,0-1,0.2-1.4,0.6c-0.4,0.4-0.6,0.9-0.6,1.4c0,2.2,0,5.5,0,5.5
		s-4.7-4.7-7.1-7.1c-0.8-0.8-2-0.8-2.8,0c0,0,0,0,0,0c-0.8,0.8-0.8,2,0,2.8C28.7,30.3,33.4,35,33.4,35L33.4,35z"/>
	<path class="st0" d="M33.4,4.6c0,0-3.3,0-5.5,0c-0.5,0-1-0.2-1.4-0.6C26.2,3.6,26,3.2,26,2.6c0,0,0,0,0,0c0-0.5,0.2-1,0.6-1.4
		c0.4-0.4,0.9-0.6,1.4-0.6c2.9,0,8.3,0,10.3,0c0.5,0,1,0.2,1.3,0.5c0,0,0,0,0,0c0.4,0.4,0.5,0.8,0.5,1.3c0,2,0,7.4,0,10.3
		c0,0.5-0.2,1-0.6,1.4c-0.4,0.4-0.9,0.6-1.4,0.6c0,0,0,0,0,0c-0.5,0-1-0.2-1.4-0.6c-0.4-0.4-0.6-0.9-0.6-1.4c0-2.2,0-5.5,0-5.5
		s-4.7,4.7-7.1,7.1c-0.8,0.8-2,0.8-2.8,0c0,0,0,0,0,0c-0.8-0.8-0.8-2,0-2.8C28.7,9.3,33.4,4.6,33.4,4.6L33.4,4.6z"/>
</g>
</svg>
