<svg xmlns="http://www.w3.org/2000/svg" viewBox="0 0 379.93 166.87"><defs><style>.cls-1{fill:#fff;}</style></defs><title>Asset 1</title><g id="Layer_2" data-name="Layer 2"><g id="Layer_1-2" data-name="Layer 1"><path class="cls-1" d="M140.26,102.3h-7.37V64.57h11l9.62,30.13L163,64.57h11V102.3h-7.6V74.37l-8.83,27.93h-8.23l-9.07-28.14Zm50.11,0h-7.81V64.57h7.81Zm16.06,0h-7.5V64.57h9.2l15,27.36V64.57h7.47V102.3h-9.2l-15-27.23Zm40.61,0h-7.81V64.57H247Zm55.44,13.92h-35.8a82.78,82.78,0,0,0,4.54-13.91h45.17L328.3,90.39H273.09c.19-2.3.31-4.61.31-7s-.12-4.66-.31-7h69.12l11.91-11.91H271.22a82.74,82.74,0,0,0-4.54-13.91H368l11.91-11.91H260.37a83.34,83.34,0,0,0-140.8,0H0L11.91,50.65H113.25a82.66,82.66,0,0,0-4.54,13.91H25.82L37.72,76.48h69.12c-.19,2.29-.31,4.61-.31,7s.12,4.66.31,7H51.63L63.54,102.3h45.17a82.7,82.7,0,0,0,4.54,13.91H77.45l11.91,11.91h30.21a83.34,83.34,0,0,0,140.8,0h30.21ZM190,155a71.53,71.53,0,1,1,71.53-71.53A71.61,71.61,0,0,1,190,155"/></g></g></svg>